<svg width="199" height="49" viewBox="0 0 199 49" fill="none" xmlns="http://www.w3.org/2000/svg">
<path d="M12.763 24.0057C12.8615 23.986 12.9206 23.9072 12.9009 23.8087C12.8812 23.7102 12.8024 23.6512 12.7039 23.6709C9.90707 24.1042 8.2526 22.1543 8.23291 22.1346C8.17382 22.0558 8.05564 22.0558 7.99655 22.1149C7.91777 22.174 7.91777 22.2724 7.97686 22.3512C7.97686 22.3512 8.01625 22.3906 8.05564 22.4497C7.89807 22.6073 7.56324 22.8436 7.18902 22.7649C7.09054 22.7452 7.01176 22.8042 6.99206 22.883C6.97236 22.9815 7.03145 23.0603 7.11023 23.08C7.18902 23.0997 7.28749 23.0997 7.36628 23.0997C7.79959 23.0997 8.13443 22.8436 8.3117 22.6664C8.39048 22.7255 8.46925 22.8042 8.54804 22.883C8.27229 23.1391 7.60263 23.6906 6.91327 23.4542C6.83449 23.4148 6.73601 23.4739 6.69662 23.5527C6.65723 23.6512 6.71632 23.73 6.7951 23.7693C6.95267 23.8284 7.11023 23.8481 7.2678 23.8481C7.97685 23.8481 8.58743 23.3163 8.82379 23.08C8.96166 23.1785 9.09953 23.2769 9.27679 23.3557C9.04044 23.5921 8.52834 24.0451 7.95716 24.0648C7.85868 24.0648 7.7799 24.1436 7.79959 24.2421C7.79959 24.3405 7.87838 24.3996 7.97686 24.3996C8.745 24.3799 9.37528 23.7693 9.59194 23.5133C9.72981 23.5724 9.86767 23.6512 10.0252 23.6906C9.86767 23.8875 9.61163 24.1633 9.35558 24.2223C9.2571 24.242 9.19801 24.3405 9.21771 24.4193C9.2374 24.4981 9.29649 24.5572 9.37527 24.5572C9.39497 24.5572 9.39497 24.5572 9.41467 24.5572C9.84798 24.4784 10.2025 24.0254 10.3601 23.8087C10.8131 23.9466 11.3055 24.0254 11.8767 24.0254C12.1721 24.0845 12.4675 24.0648 12.763 24.0057Z" fill="#842A3A"/>
<path d="M23.6154 23.4739C22.9457 23.7102 22.2564 23.1587 21.9806 22.9027C22.0791 22.8239 22.1579 22.7648 22.217 22.686C22.3942 22.8633 22.7291 23.1193 23.1624 23.1193C23.2412 23.1193 23.32 23.1193 23.4184 23.0996C23.5169 23.0799 23.576 22.9815 23.5366 22.9027C23.5169 22.8042 23.4184 22.7451 23.3397 22.7845C22.9457 22.883 22.6306 22.6269 22.473 22.4694C22.5124 22.4103 22.5518 22.3906 22.5518 22.3709C22.6109 22.2921 22.6109 22.1936 22.5321 22.1345C22.4533 22.0754 22.3549 22.0754 22.2958 22.1542C22.2761 22.1739 20.6216 24.1238 17.8248 23.6905C17.7263 23.6708 17.6475 23.7496 17.6278 23.8284C17.6081 23.9269 17.6869 24.0056 17.7657 24.0253C18.0808 24.0647 18.3566 24.0844 18.6323 24.0844C19.2035 24.0844 19.6959 24.0057 20.1489 23.8678C20.3065 24.0844 20.661 24.5177 21.0943 24.6162C21.114 24.6162 21.114 24.6162 21.1337 24.6162C21.2125 24.6162 21.2913 24.5571 21.2913 24.4784C21.311 24.3799 21.2519 24.3011 21.1534 24.2814C20.8973 24.2223 20.6413 23.9663 20.4837 23.7496C20.6413 23.6905 20.7792 23.6314 20.9171 23.5723C21.1534 23.8284 21.7837 24.439 22.5321 24.4587C22.6306 24.4587 22.6897 24.3799 22.7094 24.3011C22.7094 24.2026 22.6306 24.1238 22.5518 24.1238C21.9806 24.1041 21.4685 23.6511 21.2322 23.4148C21.3898 23.3163 21.5473 23.2178 21.6852 23.139C21.9215 23.3754 22.5321 23.9072 23.2412 23.9072C23.3987 23.9072 23.5563 23.8875 23.7139 23.8284C23.8124 23.789 23.8517 23.6905 23.8124 23.6117C23.7927 23.4936 23.6942 23.4542 23.6154 23.4739Z" fill="#842A3A"/>
<path d="M17.9232 31.648C17.9232 31.648 17.3717 32.0026 16.7414 31.648C16.0718 31.2539 15.4415 31.3918 15.2445 31.4312C15.0673 31.3918 14.4173 31.2539 13.7476 31.648C13.1371 32.0026 12.6053 31.6677 12.5659 31.648C12.4871 31.5888 12.3886 31.6085 12.3295 31.6874C12.2704 31.7662 12.2901 31.8647 12.3689 31.9238C12.3886 31.9435 12.7038 32.1406 13.1371 32.1406C13.3537 32.1406 13.6295 32.0815 13.8855 31.9238C14.5355 31.5494 15.146 31.7465 15.146 31.7465H15.1658C15.1658 31.7465 15.1657 31.7465 15.1854 31.7465H15.2051H15.2248H15.2445H15.2642C15.2642 31.7465 15.8748 31.5494 16.5248 31.9238C16.8005 32.0815 17.0566 32.1406 17.2732 32.1406C17.7065 32.1406 18.0217 31.9435 18.0414 31.9238C18.1201 31.8647 18.1398 31.7662 18.0808 31.6874C18.1201 31.6085 18.002 31.5888 17.9232 31.648Z" fill="#842A3A"/>
<path d="M17.2932 32.7114C17.2735 32.7114 16.2493 32.8887 15.3039 32.7705H15.2842H15.2645C14.3191 32.9085 13.2752 32.7114 13.2752 32.7114C13.1767 32.6917 13.0979 32.7508 13.0782 32.8493C13.0585 32.9479 13.1176 33.0267 13.2161 33.0464C13.2555 33.0464 13.8267 33.1449 14.5161 33.1449C14.7721 33.1449 15.0281 33.1252 15.2842 33.1055C15.5402 33.1449 15.816 33.1449 16.0523 33.1449C16.7417 33.1449 17.3129 33.0464 17.3523 33.0464C17.4508 33.0267 17.5098 32.9479 17.4901 32.8493C17.4704 32.7508 17.372 32.6917 17.2932 32.7114Z" fill="#842A3A"/>
<path d="M26.0578 13.9411C25.0336 12.9169 23.8912 12.0503 22.6307 11.3609C24.0291 8.20953 23.7928 4.60516 21.961 1.69015C21.5868 1.09927 21.1732 0.547771 20.7005 0.0553702C20.6414 -0.00371788 20.5626 -0.0234091 20.4838 0.035679C20.4248 0.075071 20.3854 0.173551 20.4051 0.232639C21.6262 3.52188 21.0156 7.26412 18.8097 9.98217C18.5142 10.3564 18.1794 10.7109 17.8249 11.0458C17.3916 11.4397 16.9386 11.7942 16.4462 12.1093L16.3477 12.1684C14.2402 13.4684 11.7585 13.9608 9.31621 13.5275C8.74502 13.429 8.19353 13.2714 7.64205 13.0744C7.18904 12.9169 6.73603 12.7199 6.32241 12.4836C5.3967 11.9912 4.54977 11.3412 3.82102 10.5731C3.76193 10.514 3.68315 10.4943 3.60437 10.5534C3.54528 10.5928 3.50588 10.6912 3.52558 10.7503C3.76193 11.4003 4.07707 12.0108 4.45129 12.6017C4.62856 12.8775 4.80582 13.1532 5.02248 13.4093C4.84522 13.5865 4.64826 13.7441 4.47099 13.9214C1.59538 16.797 0 20.6377 0 24.7148V43.0518C0 44.0957 0.413614 45.0805 1.14237 45.8092C1.87112 46.538 2.85592 46.9516 3.89981 46.9516C6.12545 46.9516 8.23293 45.7699 9.41469 43.879C9.43438 43.8396 9.47378 43.8003 9.49347 43.7609C9.88739 44.3123 11.0298 45.7108 12.507 45.7502C12.5267 45.7502 12.5464 45.7502 12.5464 45.7502C12.9994 45.7502 13.4524 45.6123 13.8857 45.3562C14.2205 45.4744 14.575 45.5926 14.9493 45.6911L14.2205 46.5774C14.1811 46.6168 14.1614 46.6956 14.2008 46.7546L15.1068 48.9015C15.1265 48.9606 15.1856 49 15.2644 49C15.3432 49 15.4023 48.9606 15.422 48.9015L16.328 46.7546C16.3477 46.6956 16.3477 46.6365 16.3083 46.5774L15.5795 45.6911C15.9538 45.5926 16.3083 45.4744 16.6431 45.3562C17.0764 45.6123 17.5294 45.7502 17.9824 45.7502C18.0021 45.7502 18.0218 45.7502 18.0218 45.7502C19.499 45.7305 20.6414 44.332 21.0353 43.7806C21.055 43.8199 21.0747 43.8593 21.1141 43.8987C22.2762 45.8092 24.4033 46.9713 26.629 46.9713C27.6729 46.9713 28.6577 46.5577 29.3864 45.8289C30.1152 45.1002 30.5288 44.1154 30.5288 43.0715V24.7345C30.5288 20.6574 28.9334 16.8167 26.0578 13.9411ZM4.19525 11.4003C4.78613 11.9321 5.45579 12.4048 6.16485 12.779C6.59816 13.0154 7.07086 13.232 7.54357 13.3896C8.09505 13.5865 8.68593 13.7441 9.27681 13.8623C11.7979 14.3153 14.3781 13.8032 16.5446 12.4639L16.6431 12.4048C17.1552 12.0896 17.6279 11.7154 18.0612 11.3215C18.4355 10.9867 18.7703 10.6124 19.0854 10.2185C21.1929 7.61864 21.9019 4.13245 20.9959 0.941691C21.2323 1.23713 21.4686 1.57197 21.6656 1.9068C23.4579 4.78242 23.6746 8.3277 22.2368 11.4003C22.0595 11.7745 21.8626 12.1487 21.6459 12.5033C21.4292 12.8578 21.1732 13.2123 20.8975 13.5275C20.6217 13.8623 20.3066 14.1971 19.9914 14.4926C19.6566 14.8077 19.2824 15.1031 18.9082 15.3592C18.7703 15.4577 18.6324 15.5364 18.4945 15.6349C15.7962 17.3091 12.5463 17.6242 9.57225 16.4622C9.13894 16.2849 8.70564 16.0879 8.31172 15.8516C7.9178 15.6349 7.54357 15.3789 7.18904 15.1031C6.85421 14.8471 6.53907 14.5713 6.22393 14.2759C5.92849 13.9805 5.65275 13.6653 5.3967 13.3502C5.16035 13.0547 4.96339 12.7593 4.76643 12.4442C4.54978 12.0896 4.35281 11.7548 4.19525 11.4003ZM20.3657 42.1261C20.149 42.4609 19.0657 43.9972 16.6825 44.9623C16.2492 44.6669 15.8159 44.2139 15.422 43.6033C15.3826 43.5639 15.3432 43.5245 15.2841 43.5245C15.225 43.5245 15.1659 43.5442 15.1462 43.6033C14.7326 44.2139 14.319 44.6669 13.8857 44.9623C11.4631 43.9775 10.3798 42.4215 10.1828 42.1261C10.5374 40.7277 10.4192 39.2505 9.848 37.9308C10.5571 36.8082 10.6358 35.5082 10.6358 34.8976C11.8767 35.8431 13.3933 36.6703 15.2447 37.1233C15.2644 37.1233 15.2644 37.1233 15.2841 37.1233C15.3038 37.1233 15.3038 37.1233 15.3235 37.1233C17.1749 36.6506 18.6915 35.8431 19.9324 34.8976C19.9324 35.5082 19.9914 36.8081 20.7202 37.9111C20.1096 39.2308 19.9914 40.7277 20.3657 42.1261ZM10.2616 34.6022C10.2616 34.7007 10.3798 36.2567 9.67073 37.5369C9.45408 37.1233 9.19803 36.7097 8.88289 36.3552C6.71633 33.7356 6.46029 29.8161 6.46029 29.7767V29.6782C6.63755 30.0327 6.83451 30.4069 7.07086 30.8009C7.76022 32.0023 8.80411 33.3811 10.2616 34.6022ZM20.8581 37.5369C20.149 36.2764 20.2475 34.7598 20.2475 34.6022C21.705 33.4007 22.7489 32.0023 23.4776 30.7812C23.6943 30.4069 23.8913 30.0524 24.0685 29.6979V29.757C24.0685 29.7964 23.8125 33.7159 21.6459 36.3354C21.3505 36.7097 21.0747 37.1233 20.8581 37.5369ZM24.2064 28.6343C24.167 28.654 24.1473 28.7131 24.1473 28.7525V28.7919C23.8912 29.3631 23.5958 29.9736 23.2216 30.6039C21.9019 32.8296 19.4793 35.6855 15.3038 36.7491C11.1282 35.6855 8.68594 32.8296 7.386 30.6039C7.01178 29.9539 6.69664 29.3237 6.4406 28.7525C6.4406 28.7131 6.42089 28.6737 6.3815 28.6343C5.73153 27.1177 5.51488 25.995 5.51488 25.9753C5.51488 25.9556 5.49518 25.936 5.49518 25.9163V24.8133C5.49518 23.1982 5.88911 21.6225 6.63756 20.2241C7.386 20.0862 9.17834 19.8696 11.2661 20.2832C13.7084 20.7756 15.3432 23.0997 14.969 25.5617L14.3978 29.304C14.3781 29.3828 14.4372 29.4615 14.4963 29.4812C14.5159 29.4812 14.8705 29.6191 15.3235 29.6191C15.5598 29.6191 15.8159 29.5797 16.0719 29.4615C16.1507 29.4222 16.1901 29.3237 16.1507 29.2449C16.1113 29.1661 16.0128 29.1267 15.9341 29.1661C15.4811 29.3631 14.969 29.2646 14.7523 29.2055L15.3038 25.6011C15.6977 22.9618 13.9645 20.4605 11.3252 19.9287C9.41469 19.5347 7.74053 19.6923 6.85421 19.8105C7.54357 18.6287 8.46928 17.5848 9.61165 16.7576C10.8131 17.2106 12.054 17.447 13.2948 17.447C15.1856 17.447 17.0567 16.9152 18.7309 15.8713C18.8491 15.7925 18.9672 15.7137 19.0854 15.6349C22.7095 17.1712 25.1518 20.8347 25.1518 24.7739V25.8965C25.1518 25.9162 25.1321 25.936 25.1321 25.936C25.073 25.995 24.8367 27.1177 24.2064 28.6343ZM6.10576 14.6304C6.32242 14.8471 6.57846 15.044 6.81481 15.241C4.11646 17.6636 2.56048 21.0907 2.56048 24.7345V43.0912C2.56048 43.1109 2.56048 43.1503 2.56048 43.17C2.56048 43.1897 2.56048 43.2291 2.56048 43.2488C2.59987 44.1745 3.36801 44.9032 4.29373 44.9032C4.29373 44.9032 4.29372 44.9032 4.31342 44.9032C4.47099 44.8835 4.62856 44.8638 4.78613 44.8441C5.23913 44.7457 5.67244 44.5881 6.08606 44.3714C6.75572 43.9972 7.30721 43.4654 7.70113 42.8154C8.70563 41.2004 8.54807 39.1126 7.32692 37.6354C6.57847 36.7294 5.94819 35.6264 5.45579 34.3461V32.0417C5.81032 33.5583 6.49968 35.587 7.83901 37.2218C9.23742 38.9156 9.41469 41.2989 8.27232 43.17C7.34661 44.6669 5.67244 45.6123 3.9195 45.6123C3.30892 45.6123 2.73775 45.3759 2.30443 44.9426C1.87112 44.5093 1.63477 43.9381 1.63477 43.3275V24.7345C1.63477 21.0907 3.05288 17.6636 5.63305 15.0834C5.77092 14.9259 5.94819 14.7683 6.10576 14.6304ZM7.93749 16.0092C5.33761 18.2348 3.84072 21.4256 3.84072 24.833V43.1503C3.84072 43.3669 3.9392 43.5639 4.09677 43.7018C4.21494 43.8002 4.37251 43.8593 4.53008 43.8593C4.58917 43.8593 4.62856 43.8593 4.68765 43.8396C5.57397 43.623 6.36181 43.0715 6.83452 42.3033C7.60266 41.0428 7.48448 39.4474 6.53907 38.305C6.14515 37.8323 5.77092 37.3005 5.43609 36.7294V35.2522C5.8891 36.237 6.42089 37.1233 7.05117 37.8717C8.17384 39.2308 8.31171 41.1413 7.40569 42.6579C7.03147 43.2488 6.51938 43.7412 5.9088 44.0957C5.53458 44.3123 5.12095 44.4502 4.70734 44.5487C4.56947 44.5684 4.4316 44.5881 4.29373 44.6078C3.54528 44.6078 2.9544 44.0169 2.91501 43.2882V24.7739C2.91501 21.2286 4.4316 17.8409 7.11025 15.4971C7.3663 15.6546 7.64205 15.8319 7.93749 16.0092ZM6.32241 19.968C6.32241 19.9877 6.30272 19.9878 6.30272 20.0075C5.51488 21.465 5.10126 23.1194 5.10126 24.8133V29.7964C5.10126 29.7964 5.10126 29.8161 5.10126 29.8358C5.10126 29.8358 5.10126 29.8555 5.10126 29.8949V36.7688V43.3472C4.94369 43.4063 4.78612 43.4654 4.60886 43.5048C4.51038 43.5245 4.3922 43.5048 4.31342 43.4457C4.23463 43.3866 4.17555 43.2685 4.17555 43.17V24.8527C4.17555 21.5043 5.65275 18.3727 8.25262 16.2258C8.54806 16.3834 8.8632 16.5409 9.17833 16.6788C7.97688 17.5454 7.01177 18.6878 6.32241 19.968ZM5.43609 37.3596C5.69214 37.7733 5.96789 38.1475 6.26333 38.502C7.11025 39.5262 7.22843 40.964 6.51937 42.1064C6.24363 42.5397 5.86941 42.9139 5.4164 43.17V37.3596H5.43609ZM21.0944 13.8229C25.1321 15.9895 27.6335 20.1453 27.6335 24.7345V43.2488C27.5941 43.9775 26.9835 44.5684 26.2548 44.5684C26.1169 44.5487 25.979 44.529 25.8412 44.5093C25.4275 44.4305 25.0139 44.273 24.6397 44.0563C24.0291 43.7215 23.517 43.2291 23.1428 42.6185C22.2171 41.1216 22.355 39.1914 23.4973 37.8324C24.1276 37.0839 24.6594 36.1976 25.1124 35.2128V36.69C24.7776 37.2612 24.4033 37.793 24.0094 38.2657C23.064 39.408 22.9458 41.0034 23.714 42.264C24.1867 43.0321 24.9745 43.6033 25.8608 43.8002C25.9199 43.8199 25.979 43.8199 26.0184 43.8199C26.176 43.8199 26.3336 43.7609 26.4517 43.6624C26.629 43.5245 26.7078 43.3275 26.7078 43.1109V24.7936C26.7078 20.4998 24.2458 16.4819 20.4248 14.5123C20.6414 14.3153 20.8778 14.0592 21.0944 13.8229ZM23.9897 42.1064C23.3004 40.9837 23.3988 39.5262 24.2458 38.502C24.5412 38.1475 24.817 37.7536 25.073 37.3596V43.17C24.6397 42.9139 24.2655 42.5397 23.9897 42.1064ZM20.149 14.788C23.9306 16.6788 26.3532 20.618 26.3532 24.8133V43.1306C26.3532 43.2487 26.2942 43.3472 26.2154 43.4063C26.1366 43.4654 26.0184 43.5048 25.9199 43.4654C25.7427 43.426 25.5851 43.3669 25.4275 43.3078V36.7294V34.3658V29.8555C25.4275 29.8358 25.4275 29.8161 25.4275 29.7964C25.4275 29.7767 25.4275 29.7767 25.4275 29.757V24.7739C25.4275 20.7756 23.0049 17.053 19.3612 15.3986C19.6369 15.241 19.893 15.0244 20.149 14.788ZM25.0927 34.3461C24.6003 35.6264 23.97 36.7294 23.2216 37.6354C22.0004 39.1126 21.8429 41.1807 22.8474 42.8154C23.2413 43.4654 23.8125 43.9972 24.4624 44.3714C24.8761 44.6078 25.3094 44.7654 25.7624 44.8441C25.9199 44.8835 26.0775 44.9032 26.2351 44.9032H26.2548C27.1805 44.9032 27.9486 44.1745 27.988 43.2488C27.988 43.2094 27.988 43.1897 27.988 43.1503C27.988 43.1306 27.988 43.0912 27.988 43.0715V24.7148C27.988 20.0271 25.4472 15.7531 21.3308 13.5275C21.5277 13.2714 21.705 13.0154 21.8823 12.7593C22.9852 13.3699 24.0291 14.138 24.9351 15.0637C27.5153 17.6439 28.9334 21.071 28.9334 24.7148V43.3078C28.9334 43.9184 28.6971 44.4896 28.2638 44.9229C27.8305 45.3562 27.2593 45.5926 26.6487 45.5926C24.876 45.5926 23.2216 44.6669 22.2959 43.1503C21.1535 41.2792 21.3111 38.8959 22.7292 37.2021C24.0882 35.5673 24.7776 33.5386 25.1124 32.022V34.3461H25.0927ZM3.89981 46.6168C2.9544 46.6168 2.04838 46.2425 1.37872 45.5729C0.709056 44.9032 0.334828 44.0169 0.334828 43.0518V24.7148C0.334828 20.7362 1.89081 16.9743 4.70734 14.1577C4.86491 14.0002 5.04218 13.8229 5.21944 13.6653C5.4164 13.9017 5.63306 14.138 5.84971 14.3547C5.69215 14.4926 5.53457 14.6501 5.37701 14.8077C2.73774 17.447 1.28024 20.9529 1.28024 24.6951V43.2882C1.28024 43.9972 1.55598 44.6472 2.04838 45.1396C2.54078 45.632 3.21045 45.9077 3.89981 45.9077C5.79062 45.9077 7.56326 44.9032 8.54806 43.3078C9.76921 41.3185 9.59195 38.7581 8.09505 36.9657C5.81032 34.2083 5.47548 30.3085 5.43609 29.8358V27.1571C5.57396 27.6101 5.79063 28.1813 6.04667 28.8116L6.08606 29.757C6.08606 29.7964 6.32241 33.8144 8.58745 36.5324C10.2616 38.5611 10.4783 41.417 9.09956 43.6624C8.01628 45.4941 6.02697 46.6168 3.89981 46.6168ZM12.566 45.3956C12.5464 45.3956 12.5463 45.3956 12.5267 45.3956C11.0691 45.3759 9.92679 43.7805 9.69044 43.426C9.82831 43.1306 9.96617 42.8548 10.0647 42.5397C10.4783 43.1109 11.5222 44.3123 13.5115 45.179C13.1766 45.3168 12.8812 45.3956 12.566 45.3956ZM15.2644 48.3697L14.5553 46.6956L15.2644 45.8486L15.9735 46.6956L15.2644 48.3697ZM15.2644 45.3956C14.8902 45.2971 14.5553 45.1987 14.2402 45.0805C14.5947 44.8047 14.9296 44.4305 15.2644 43.9578C15.5992 44.4305 15.9341 44.785 16.2886 45.0805C15.9735 45.1987 15.6386 45.3168 15.2644 45.3956ZM18.0218 45.3956C17.687 45.3956 17.3719 45.3168 17.0567 45.179C19.0263 44.332 20.0899 43.1306 20.5035 42.5594C20.602 42.8548 20.7202 43.1503 20.8778 43.4457C20.602 43.8003 19.4597 45.3562 18.0218 45.3956ZM30.1743 43.0518C30.1743 43.9972 29.8 44.9032 29.1304 45.5729C28.4607 46.2425 27.5744 46.6168 26.6093 46.6168C24.5018 46.6168 22.4928 45.4941 21.3899 43.7018C21.0944 43.2094 20.8581 42.6973 20.7202 42.1458C20.7202 42.1064 20.7202 42.067 20.7005 42.0473C20.2081 40.1762 20.6217 38.1278 21.9216 36.5718C24.1867 33.8538 24.423 29.8358 24.423 29.7964L24.4624 28.8904C24.7382 28.2601 24.9351 27.6889 25.073 27.2359V29.8752C25.0336 30.3479 24.6988 34.2674 22.414 37.0051C20.9172 38.8171 20.7399 41.3579 21.961 43.3472C22.9458 44.9426 24.7185 45.9471 26.6093 45.9471C27.3183 45.9471 27.9683 45.6714 28.4607 45.179C28.9531 44.6866 29.2289 44.0169 29.2289 43.3275V24.7345C29.2289 20.9923 27.7714 17.4863 25.1321 14.8471C24.2064 13.9214 23.1625 13.1335 22.0201 12.5033C22.1777 12.2472 22.3353 11.9715 22.4731 11.676C23.6746 12.3457 24.7973 13.1926 25.8018 14.1774C28.6183 16.9939 30.1743 20.7362 30.1743 24.7345V43.0518Z" fill="#842A3A"/>
<path d="M16.249 3.34457C16.8005 3.34457 17.2535 3.93547 17.2535 4.66422C17.2535 4.7627 17.3323 4.84149 17.4308 4.84149C17.5293 4.84149 17.6081 4.7627 17.6081 4.66422C17.6081 3.93547 18.0611 3.34457 18.6126 3.34457C18.711 3.34457 18.7898 3.26581 18.7898 3.16733C18.7898 3.06885 18.711 2.99006 18.6126 2.99006C18.0611 2.99006 17.6081 2.39916 17.6081 1.67041C17.6081 1.57193 17.5293 1.49316 17.4308 1.49316C17.3323 1.49316 17.2535 1.57193 17.2535 1.67041C17.2535 2.39916 16.8005 2.99006 16.249 2.99006C16.1506 2.99006 16.0718 3.06885 16.0718 3.16733C16.0718 3.26581 16.1506 3.34457 16.249 3.34457ZM17.4111 2.49766C17.549 2.7931 17.7459 3.02945 17.9823 3.16733C17.7459 3.32489 17.5293 3.56123 17.4111 3.83697C17.2732 3.54153 17.0763 3.3052 16.8399 3.16733C17.0763 3.02945 17.2732 2.7931 17.4111 2.49766Z" fill="#842A3A"/>
<path d="M12.9597 10.376C13.3931 10.376 13.7476 10.8487 13.7476 11.4199C13.7476 11.5183 13.8264 11.5971 13.9248 11.5971C14.0233 11.5971 14.1021 11.5183 14.1021 11.4199C14.1021 10.8487 14.4566 10.376 14.8899 10.376C14.9884 10.376 15.0672 10.2972 15.0672 10.1987C15.0672 10.1002 14.9884 10.0214 14.8899 10.0214C14.4566 10.0214 14.1021 9.54875 14.1021 8.97756C14.1021 8.87908 14.0233 8.80029 13.9248 8.80029C13.8264 8.80029 13.7476 8.87908 13.7476 8.97756C13.7476 9.54875 13.3931 10.0214 12.9597 10.0214C12.8613 10.0214 12.7825 10.1002 12.7825 10.1987C12.7825 10.2972 12.8613 10.376 12.9597 10.376ZM13.9248 9.726C14.0233 9.92296 14.1809 10.1002 14.3385 10.2184C14.1612 10.3366 14.0233 10.4941 13.9248 10.7108C13.8264 10.5138 13.6688 10.3366 13.5112 10.2184C13.6688 10.1002 13.8067 9.92296 13.9248 9.726Z" fill="#842A3A"/>
<path d="M6.46023 5.72783C7.22837 5.72783 7.83895 6.53536 7.83895 7.52016C7.83895 7.61864 7.91774 7.69743 8.01622 7.69743C8.1147 7.69743 8.19347 7.61864 8.19347 7.52016C8.19347 6.53536 8.80405 5.72783 9.57219 5.72783C9.67067 5.72783 9.74946 5.64904 9.74946 5.55056C9.74946 5.45208 9.67067 5.37329 9.57219 5.37329C8.80405 5.37329 8.19347 4.56576 8.19347 3.58096C8.19347 3.48248 8.1147 3.40369 8.01622 3.40369C7.91774 3.40369 7.83895 3.48248 7.83895 3.58096C7.83895 4.56576 7.22837 5.37329 6.46023 5.37329C6.36175 5.37329 6.28296 5.45208 6.28296 5.55056C6.28296 5.64904 6.38144 5.72783 6.46023 5.72783ZM8.01622 4.50666C8.19348 4.97936 8.50862 5.3536 8.90254 5.55056C8.50862 5.74752 8.21318 6.12173 8.01622 6.59443C7.83895 6.12173 7.52382 5.74752 7.1299 5.55056C7.52382 5.3536 7.83895 4.97936 8.01622 4.50666Z" fill="#842A3A"/>
<path d="M43.5283 13.488C47.7039 13.488 50.6583 13.8623 50.6583 17.4666C50.6583 19.712 48.2751 21.2286 45.1631 21.2286C44.6313 21.2286 44.0798 21.1892 43.5086 21.0907V27.1177H41.7163V13.5078H43.5283V13.488ZM43.5283 20.618C43.9026 20.6968 44.2965 20.7362 44.651 20.7362C46.8373 20.7362 48.866 19.515 48.866 17.0333C48.866 13.7835 46.404 13.9607 43.5086 13.9607V20.618H43.5283Z" fill="#842A3A"/>
<path d="M58.3789 13.488V22.6861C58.3789 26.1132 60.2697 26.901 61.7666 26.901C63.5984 26.901 65.824 26.1132 65.824 22.371V13.488H66.277V22.2922C66.277 26.2117 64.0711 27.3737 61.353 27.3737C59.4031 27.3737 56.5669 26.8026 56.5669 22.3316V13.488H58.3789Z" fill="#842A3A"/>
<path d="M72.6193 13.488H74.6086C78.7841 13.488 81.581 13.6653 81.581 17.2697C81.581 18.9439 80.5765 19.9483 78.6266 20.4604L82.6445 27.1177H80.5174L76.6964 20.815C76.0464 20.8741 75.1601 20.8938 74.3919 20.8938V27.1177H72.5799V13.488H72.6193ZM74.4313 20.4407C77.7599 20.4407 79.7886 19.9286 79.7886 17.0333C79.7886 13.7835 77.3266 13.9607 74.4313 13.9607V20.4407Z" fill="#842A3A"/>
<path d="M89.3605 13.9411V19.7711H93.9694V20.2242H89.3605V26.6647H90.8771C92.7876 26.6647 94.2845 26.133 95.5253 24.9512V27.1178H87.5485V13.5078H95.5056V15.6744C94.2648 14.4926 92.7679 13.9608 90.8574 13.9608H89.3605V13.9411Z" fill="#842A3A"/>
<path d="M111.204 13.488H114.769C118.018 13.488 119.988 14.335 119.988 16.6C119.988 18.0575 119.24 18.9635 116.935 19.4559C119.752 19.8696 120.795 21.4452 120.795 23.08C120.795 25.9359 117.684 27.098 115.359 27.098H111.223V13.488H111.204ZM114.769 19.515C117.644 19.515 118.176 18.1757 118.176 16.8364C118.176 14.4138 116.108 13.9411 114.375 13.9411H113.016V19.515H114.769ZM113.016 19.968V26.6647H115.359C117.427 26.6647 118.983 25.3451 118.983 23.2573C118.983 21.5634 117.861 19.968 115.438 19.968H113.016Z" fill="#842A3A"/>
<path d="M128.3 13.9411V19.7711H132.909V20.2242H128.3V26.6647H129.816C131.727 26.6647 133.224 26.133 134.465 24.9512V27.1178H126.488V13.5078H134.445V15.6744C133.204 14.4926 131.707 13.9608 129.797 13.9608H128.3V13.9411Z" fill="#842A3A"/>
<path d="M145.455 13.488H146.361L151.915 27.0783H149.729L148.35 23.6709H141.89L140.551 27.0783H140.137L145.455 13.488ZM142.047 23.2967H148.193L145.061 15.5955L142.047 23.2967Z" fill="#842A3A"/>
<path d="M158.573 13.488V22.6861C158.573 26.1132 160.463 26.901 161.96 26.901C163.792 26.901 166.018 26.1132 166.018 22.371V13.488H166.471V22.2922C166.471 26.2117 164.265 27.3737 161.547 27.3737C159.597 27.3737 156.761 26.8026 156.761 22.3316V13.488H158.573Z" fill="#842A3A"/>
<path d="M183.015 13.488V15.6546C181.833 14.5319 180.395 13.9804 178.603 13.9411V27.1177H176.791V13.9411C174.999 13.9804 173.561 14.5319 172.379 15.6546V13.488H183.015Z" fill="#842A3A"/>
<path d="M188.274 13.488H190.362L194.478 20.7362L198.398 13.488H198.91L194.636 21.4649V27.098H192.824V21.5043L188.274 13.488Z" fill="#842A3A"/>
<path d="M83.4324 39.1519C83.7672 39.3489 84.2399 39.5261 84.752 39.5261C85.5005 39.5261 85.9338 39.1322 85.9338 38.561C85.9338 38.0292 85.6383 37.7338 84.8702 37.4384C83.9445 37.1035 83.3733 36.6308 83.3733 35.8233C83.3733 34.9369 84.102 34.287 85.205 34.287C85.7959 34.287 86.2095 34.4248 86.4656 34.5627L86.2686 35.1536C86.0913 35.0551 85.6974 34.8779 85.1853 34.8779C84.4172 34.8779 84.1217 35.3506 84.1217 35.7248C84.1217 36.2566 84.4763 36.5126 85.2444 36.8278C86.2095 37.202 86.7019 37.655 86.7019 38.5019C86.7019 39.3882 86.052 40.1367 84.7126 40.1367C84.1611 40.1367 83.5703 39.9791 83.2551 39.7822L83.4324 39.1519Z" fill="#842A3A"/>
<path d="M91.9213 34.3658H92.65V37.1036H92.6697C92.8273 36.8869 92.9651 36.69 93.1227 36.493L94.856 34.3658H95.762L93.6939 36.7885L95.9196 40.058H95.0529L93.1818 37.2612L92.65 37.8914V40.058H91.9213V34.3658Z" fill="#842A3A"/>
<path d="M101.435 34.3658V40.058H100.706V34.3658H101.435Z" fill="#842A3A"/>
<path d="M106.93 40.0383V34.3462H107.737L109.569 37.2218C109.983 37.8915 110.317 38.4824 110.593 39.0732H110.613C110.554 38.3051 110.534 37.6157 110.534 36.7294V34.3462H111.223V40.0383H110.475L108.663 37.1627C108.269 36.5325 107.895 35.8825 107.599 35.2719H107.58C107.619 35.981 107.639 36.6703 107.639 37.6157V40.0383H106.93Z" fill="#842A3A"/>
<path d="M126.685 39.861C126.409 39.9989 125.877 40.1368 125.188 40.1368C123.592 40.1368 122.371 39.1323 122.371 37.2611C122.371 35.4885 123.573 34.2673 125.345 34.2673C126.054 34.2673 126.507 34.4249 126.704 34.5234L126.527 35.1143C126.251 34.9764 125.858 34.8779 125.385 34.8779C124.046 34.8779 123.159 35.7248 123.159 37.2217C123.159 38.6202 123.967 39.5065 125.345 39.5065C125.798 39.5065 126.251 39.408 126.547 39.2701L126.685 39.861Z" fill="#842A3A"/>
<path d="M132.771 38.2657L132.18 40.058H131.412L133.342 34.3658H134.228L136.178 40.058H135.39L134.78 38.2657H132.771ZM134.642 37.6748L134.09 36.04C133.972 35.6658 133.874 35.331 133.795 34.9961H133.775C133.696 35.331 133.598 35.6855 133.48 36.0203L132.928 37.6748H134.642Z" fill="#842A3A"/>
<path d="M141.24 34.4446C141.614 34.3658 142.146 34.3264 142.658 34.3264C143.446 34.3264 143.958 34.4643 144.313 34.7991C144.608 35.0552 144.766 35.4491 144.766 35.8824C144.766 36.6309 144.293 37.1233 143.702 37.3399V37.3596C144.135 37.5172 144.411 37.9111 144.529 38.502C144.706 39.2898 144.844 39.8413 144.963 40.058H144.194C144.096 39.9004 143.978 39.408 143.82 38.6989C143.643 37.9111 143.347 37.6156 142.678 37.596H141.988V40.058H141.26V34.4446H141.24ZM141.969 37.0248H142.717C143.505 37.0248 143.997 36.5914 143.997 35.9415C143.997 35.2127 143.466 34.8779 142.697 34.8779C142.343 34.8779 142.087 34.9173 141.969 34.937V37.0248Z" fill="#842A3A"/>
<path d="M152.939 37.3794H150.733V39.4278H153.195V40.0383H150.005V34.3462H153.077V34.9568H150.733V36.7491H152.939V37.3794Z" fill="#842A3A"/>
</svg>
