<svg width="88" height="15" viewBox="0 0 88 15" fill="none" xmlns="http://www.w3.org/2000/svg">
<path d="M51.0698 11.2318H48.7309V6.21905V5.75491C48.7309 5.19794 48.536 4.82663 48.2436 4.64097C47.9512 4.36248 47.5614 4.26965 47.1716 4.26965C46.7818 4.26965 46.392 4.36248 46.0996 4.64097C45.8072 4.91945 45.6123 5.29077 45.6123 5.75491V11.2318H43.2734V6.21905C43.2734 4.7338 43.6633 3.80551 44.4429 3.24854C45.2225 2.7844 46.0996 2.50591 47.0742 2.41309C47.5614 2.41309 48.1462 2.50591 48.6334 2.59874C49.1207 2.69157 49.608 2.87723 49.9978 3.24854C50.2902 2.97006 50.68 2.7844 51.1672 2.69157C51.6545 2.59874 52.1418 2.50591 52.6291 2.50591C53.6036 2.50591 54.5781 2.7844 55.3578 3.24854C56.2349 3.71268 56.6247 4.7338 56.6247 6.21905V11.2318H55.4552C55.1629 11.2318 54.8705 11.139 54.5781 10.9533C54.3832 10.7676 54.2858 10.4892 54.2858 10.1178V5.75491C54.2858 5.19794 54.0909 4.82663 53.7985 4.64097C53.5061 4.36248 53.1163 4.26965 52.7265 4.26965C52.3367 4.26965 51.9469 4.36248 51.6545 4.64097C51.3622 4.91945 51.1672 5.29077 51.1672 5.75491V6.21905V11.2318H51.0698Z" fill="white"/>
<path d="M63.8341 8.63259H65.4909C65.1985 9.56087 64.8087 10.2107 64.029 10.6748C63.3469 11.139 62.4698 11.4174 61.3978 11.4174C60.1309 11.4174 59.0589 11.0461 58.3767 10.2107C57.6945 9.46804 57.3047 8.3541 57.3047 6.86885C57.3047 5.47642 57.6945 4.45531 58.3767 3.61986C59.0589 2.7844 60.1309 2.41309 61.3978 2.41309C62.7621 2.41309 63.8341 2.7844 64.5163 3.61986C65.2959 4.45531 65.6858 5.56925 65.6858 6.96168V7.14733V7.24016C65.6858 7.33299 65.6858 7.42582 65.6858 7.42582H59.8385C59.8385 8.07562 60.0334 8.63259 60.3258 8.91108C60.6181 9.28239 61.1054 9.46805 61.6901 9.46805C62.08 9.46805 62.3723 9.37522 62.6647 9.28239C62.7621 9.28239 62.7621 9.18956 62.8596 9.18956C62.957 9.09673 62.957 9.09673 63.0545 9.0039C63.0545 8.91107 63.152 8.81825 63.3469 8.72542C63.3469 8.63259 63.5418 8.63259 63.8341 8.63259ZM59.741 6.12622H63.2494C63.2494 5.56925 63.0545 5.10511 62.7621 4.82662C62.4698 4.54814 62.08 4.36248 61.4952 4.36248C61.008 4.36248 60.6181 4.54814 60.2283 4.82662C59.936 5.10511 59.741 5.56925 59.741 6.12622Z" fill="white"/>
<path d="M72.3152 0.0917969H73.4847C73.777 0.0917969 74.0694 0.184625 74.2643 0.46311C74.4592 0.648767 74.5567 0.927252 74.5567 1.20574V7.51807C74.5567 9.00332 74.0694 10.1173 73.1923 10.5814C72.2178 11.1384 71.2432 11.4169 70.1712 11.4169C69.5865 11.4169 69.0018 11.324 68.417 11.1384C67.8323 10.9527 67.4425 10.6742 67.0527 10.2101C66.3705 9.37464 66.0781 8.35352 66.0781 6.9611C66.0781 5.56867 66.3705 4.54756 67.0527 3.7121C67.7349 2.87665 68.6119 2.41251 69.6839 2.41251C70.2687 2.41251 70.7559 2.50534 71.1458 2.69099C71.633 2.96948 71.9254 3.24796 72.2178 3.7121V0.0917969H72.3152ZM68.417 6.86827C68.417 7.70373 68.6119 8.35352 68.9043 8.81767C69.1967 9.28181 69.6839 9.46746 70.3661 9.46746C70.9508 9.46746 71.4381 9.28181 71.8279 8.81767C72.1203 8.35352 72.3152 7.70373 72.3152 6.86827C72.3152 6.12564 72.1203 5.47584 71.8279 5.0117C71.4381 4.54756 70.9508 4.3619 70.3661 4.3619C69.7814 4.3619 69.2941 4.54756 69.0018 5.0117C68.6119 5.56867 68.417 6.12564 68.417 6.86827Z" fill="white"/>
<path d="M76.3047 0.186523H77.5716C77.864 0.186523 78.1563 0.279352 78.3512 0.465009C78.5461 0.650666 78.6436 0.929151 78.6436 1.20764V1.85743H76.3047V0.186523V0.186523ZM76.3047 2.69289H77.5716C77.864 2.69289 78.1563 2.78572 78.3512 3.0642C78.5461 3.24986 78.6436 3.52835 78.6436 3.80683V11.3259H76.3047V2.69289V2.69289Z" fill="white"/>
<path d="M86.3473 10.9533C85.86 11.2318 85.3727 11.3246 84.8854 11.4174C84.3982 11.5103 83.9109 11.5103 83.5211 11.5103C82.7414 11.5103 81.9618 11.3246 81.3771 10.8605C80.7924 10.3963 80.5 9.74653 80.5 8.81824C80.5 7.88996 80.7924 7.24016 81.3771 6.86885C81.9618 6.49754 82.644 6.21905 83.5211 6.12622C83.6185 6.12622 83.8134 6.12622 83.9109 6.03339C84.1058 6.03339 84.2033 5.94056 84.4956 5.94056C85.4702 5.84774 85.9574 5.56925 85.9574 5.10511C85.9574 4.82662 85.7625 4.54814 85.4702 4.45531C85.0804 4.36248 84.788 4.26965 84.4956 4.26965C84.2033 4.26965 83.9109 4.26965 83.6185 4.36248C83.1313 4.45531 83.0338 4.64097 82.8389 4.82662H80.5975C80.6949 4.17683 80.9873 3.61986 81.572 3.15571C82.1567 2.69157 83.0338 2.41309 84.2033 2.41309C85.4702 2.41309 86.4447 2.59874 87.0294 3.06288C87.7116 3.52703 88.004 4.084 88.004 4.91945V7.88996C88.004 8.72542 87.8091 9.46804 87.5167 9.93219C87.2244 10.3963 86.8345 10.6748 86.3473 10.9533ZM85.7625 6.96168C85.4702 7.14733 84.9829 7.24016 84.3982 7.42582L83.6185 7.61148C83.2287 7.7043 82.9364 7.88996 82.7415 8.07562C82.5465 8.3541 82.5465 8.53976 82.5465 8.81824C82.5465 9.09673 82.644 9.37522 82.8389 9.56087C83.0338 9.74653 83.3262 9.83936 83.716 9.83936C84.3007 9.83936 84.8854 9.6537 85.1778 9.28239C85.6651 8.81824 85.7625 8.3541 85.7625 7.7043V6.96168Z" fill="white"/>
<path d="M7.40653 3.62132C7.11417 3.25 6.6269 2.97152 6.04217 2.78586C4.38545 2.22889 2.72872 2.50738 1.36436 3.34283C0.389818 3.8998 0 4.82809 0 6.31334V14.5751H0.87709C1.16945 14.5751 1.36436 14.4822 1.46182 14.2966C1.65672 14.1109 1.75418 13.9253 1.75418 13.7396V11.3261H2.144C2.144 11.3261 4.28799 11.3261 4.87272 11.3261C5.94472 11.3261 6.72435 10.9548 7.40653 10.1193C8.08872 9.28385 8.38108 8.16991 8.38108 6.77748C8.38108 5.57072 8.08872 4.45677 7.40653 3.62132ZM6.04217 9.19102C5.65235 9.74799 4.97017 10.0265 4.28799 10.0265C3.50836 10.0265 2.82618 9.74799 2.43636 9.19102C1.94909 8.72688 1.75418 7.98425 1.75418 6.96314C1.75418 5.94203 1.94909 5.1994 2.33891 4.64243C2.72872 4.08546 3.4109 3.80698 4.19054 3.80698C4.97017 3.80698 5.65235 4.08546 6.04217 4.64243C6.43199 5.1994 6.6269 5.94203 6.6269 6.96314C6.6269 7.89143 6.43199 8.63405 6.04217 9.19102Z" fill="white"/>
<path d="M10.6308 0H9.65625V11.2322H11.5079V0.835456C11.5079 0.649799 11.4104 0.464142 11.2155 0.278485C11.1181 0.0928284 10.9232 0 10.6308 0Z" fill="white"/>
<path d="M27.5841 3.24946C26.707 2.78532 25.83 2.50684 24.8554 2.50684C23.8809 2.50684 23.0038 2.78532 22.2241 3.34229C21.4445 3.80643 21.0547 4.73472 21.0547 6.21997V11.3255H22.9063V5.75583C22.9063 5.10603 23.1012 4.54906 23.5885 4.27058C23.8809 3.89926 24.3681 3.71361 24.8554 3.71361C25.3427 3.71361 25.83 3.89926 26.2198 4.17775C26.707 4.45623 26.902 5.0132 26.902 5.663V10.3973C26.902 10.6757 26.9994 10.8614 27.0969 11.0471C27.2918 11.2327 27.4867 11.2327 27.779 11.2327H28.6561V6.21997C28.7536 4.73472 28.3638 3.71361 27.5841 3.24946Z" fill="white"/>
<path d="M41.2221 3.89966C41.5145 3.89966 41.7094 3.80683 41.8068 3.62117C42.0018 3.43552 42.0992 3.24986 42.0992 3.0642V2.87855H40.6374V1.02198C40.6374 0.836322 40.5399 0.557837 40.345 0.465009C40.1501 0.279352 39.9552 0.186523 39.7603 0.186523H39.0781V10.0263C39.0781 11.1403 39.6629 11.3259 40.1501 11.4188C40.9298 11.5116 41.5145 11.5116 42.0992 11.5116V10.3976H41.7094C41.0272 10.3976 40.6374 10.0263 40.6374 9.46936V3.89966H41.2221Z" fill="white"/>
<path d="M19.0019 3.06381C18.4172 2.69249 17.4426 2.50684 16.1757 2.50684C15.1037 2.50684 14.2266 2.78532 13.6419 3.24946C13.2521 3.52795 12.9597 3.99209 12.8623 4.3634H14.6165C14.8114 4.08492 15.0063 3.99209 15.2986 3.89926C15.591 3.80643 15.8834 3.7136 16.2732 3.7136C16.663 3.7136 16.9554 3.80643 17.4426 3.89926C17.9299 4.08492 18.2223 4.3634 18.2223 4.92037C18.2223 5.57017 17.5401 6.03431 16.2732 6.12714C16.0783 6.12714 15.8834 6.21997 15.6885 6.21997C15.4935 6.21997 15.2986 6.3128 15.2012 6.3128C14.4215 6.40563 13.6419 6.68411 13.1546 7.05543C12.6674 7.42674 12.375 7.98371 12.375 8.81917C12.375 9.74745 12.6674 10.3972 13.2521 10.7686C14.1292 11.4184 15.2012 11.4184 16.7604 11.3255C17.2477 11.2327 17.735 11.1399 18.2223 10.8614C18.6121 10.6757 19.0019 10.3044 19.2943 9.84028C19.5866 9.37614 19.7815 8.72634 19.7815 7.89088V4.73472C19.879 3.99209 19.5866 3.52795 19.0019 3.06381ZM18.3197 7.79805C18.3197 8.54068 18.1248 9.09765 17.6375 9.56179C17.1503 10.0259 16.5655 10.2116 15.7859 10.2116C15.2986 10.2116 14.9088 10.1188 14.6165 9.84028C14.3241 9.56179 14.1292 9.19048 14.1292 8.72634C14.1292 8.44785 14.2266 8.07654 14.4215 7.79805C14.7139 7.51957 15.1037 7.33391 15.591 7.24108L16.4681 7.05543C17.0528 6.9626 17.4426 6.77694 17.8324 6.59128L18.3197 6.3128V7.79805Z" fill="white"/>
<path d="M38.3346 6.89912C38.3346 5.5067 37.9448 4.29993 37.2626 3.5573C36.5804 2.81467 35.5084 2.44336 34.1441 2.44336C32.8772 2.44336 31.9026 2.81467 31.2204 3.65013C30.5383 4.39276 30.1484 5.5067 30.1484 6.89912C30.1484 8.38438 30.5383 9.49832 31.2204 10.2409C31.9026 10.9836 32.8772 11.4477 34.1441 11.4477C35.2161 11.4477 36.0932 11.1692 36.7753 10.7051C37.3601 10.3338 37.7499 9.7768 38.0422 9.12701H36.6779C36.483 9.12701 36.2881 9.127 36.1906 9.21983C36.0932 9.31266 35.9957 9.40549 35.9957 9.40549L35.8982 9.49832L35.7033 9.68398C35.6059 9.7768 35.5084 9.86963 35.3135 9.86963C35.0212 10.0553 34.6313 10.1481 34.1441 10.1481C33.3644 10.1481 32.7797 9.96246 32.3899 9.49832C32.0001 9.127 31.8052 8.47721 31.8052 7.73458V7.36327H38.1397V6.89912H38.3346ZM32.0001 6.34215V5.97084C32.0001 5.32104 32.2924 4.76407 32.6823 4.39276C33.0721 4.02144 33.6568 3.83579 34.2415 3.83579C34.9237 3.83579 35.5084 4.02144 35.8982 4.39276C36.2881 4.76407 36.483 5.32104 36.483 5.97084V6.34215H32.0001Z" fill="white"/>
</svg>
