<svg width="35" height="56" viewBox="0 0 35 56" fill="none" xmlns="http://www.w3.org/2000/svg">
<path d="M29.7804 15.9327C28.6099 14.7621 27.3043 13.7717 25.8637 12.9839C27.4619 9.38232 27.1918 5.26303 25.0984 1.93159C24.6707 1.25629 24.198 0.626024 23.6577 0.0632802C23.5902 -0.00424901 23.5002 -0.0267533 23.4101 0.040776C23.3426 0.0857955 23.2976 0.198344 23.3201 0.265873C24.7157 4.025 24.0179 8.30185 21.4968 11.4082C21.1592 11.8359 20.7765 12.2411 20.3713 12.6237C19.8761 13.0739 19.3584 13.4791 18.7956 13.8392L18.6831 13.9068C16.2745 15.3924 13.4383 15.9552 10.6471 15.46C9.99432 15.3474 9.36405 15.1673 8.73378 14.9422C8.21605 14.7622 7.69833 14.5145 7.22562 14.2669C6.16767 13.7042 5.19974 12.9614 4.36688 12.0835C4.29935 12.016 4.20932 11.9934 4.11928 12.061C4.05175 12.106 4.00673 12.2185 4.02924 12.2861C4.29935 13.0289 4.65951 13.7267 5.0872 14.402C5.28978 14.7171 5.49238 15.0323 5.73999 15.3249C5.5374 15.5275 5.3123 15.7076 5.10971 15.9101C1.82329 19.1966 0 23.586 0 28.2455V49.2021C0 50.3951 0.472702 51.5206 1.30556 52.3534C2.13842 53.1863 3.26391 53.659 4.45693 53.659C7.00053 53.659 9.40907 52.3084 10.7597 50.1475C10.7822 50.1024 10.8272 50.0574 10.8497 50.0124C11.2999 50.6427 12.6055 52.2409 14.2937 52.2859C14.3162 52.2859 14.3387 52.2859 14.3387 52.2859C14.8564 52.2859 15.3742 52.1283 15.8694 51.8357C16.252 51.9708 16.6572 52.1058 17.0849 52.2184L16.252 53.2313C16.207 53.2763 16.1845 53.3664 16.2295 53.4339L17.265 55.8875C17.2875 55.955 17.355 56 17.4451 56C17.5351 56 17.6026 55.955 17.6251 55.8875L18.6606 53.4339C18.6831 53.3664 18.6831 53.2988 18.6381 53.2313L17.8052 52.2184C18.2329 52.1058 18.6381 51.9708 19.0207 51.8357C19.5159 52.1283 20.0337 52.2859 20.5514 52.2859C20.5739 52.2859 20.5964 52.2859 20.5964 52.2859C22.2846 52.2634 23.5902 50.6652 24.0404 50.0349C24.0629 50.0799 24.0854 50.125 24.1305 50.17C25.4585 52.3534 27.8896 53.6815 30.4332 53.6815C31.6262 53.6815 32.7517 53.2088 33.5845 52.3759C34.4174 51.5431 34.8901 50.4176 34.8901 49.2246V28.268C34.8901 23.6085 33.0668 19.2416 29.7804 15.9327ZM4.79457 13.0514C5.46987 13.6592 6.2352 14.1994 7.04555 14.6271C7.54076 14.8972 8.081 15.1448 8.62123 15.3249C9.2515 15.55 9.92679 15.7301 10.6021 15.8651C13.4833 16.3828 16.4321 15.7976 18.9082 14.2669L19.0207 14.1994C19.606 13.8392 20.1462 13.4116 20.6414 12.9614C21.0691 12.5787 21.4518 12.151 21.8119 11.7008C24.2205 8.72954 25.0308 4.74532 23.9954 1.09874C24.2655 1.43638 24.5356 1.81904 24.7607 2.20171C26.8091 5.48813 27.0567 9.53989 25.4135 13.0514C25.2109 13.4791 24.9858 13.9068 24.7382 14.3119C24.4906 14.7171 24.198 15.1223 23.8828 15.4825C23.5677 15.8651 23.2075 16.2478 22.8474 16.5854C22.4647 16.9456 22.037 17.2832 21.6094 17.5759C21.4518 17.6884 21.2942 17.7785 21.1366 17.891C18.0528 19.8043 14.3387 20.1645 10.9397 18.8364C10.4445 18.6338 9.94931 18.4087 9.49912 18.1386C9.04892 17.891 8.62123 17.5984 8.21606 17.2832C7.83339 16.9906 7.47323 16.6755 7.11307 16.3378C6.77543 16.0002 6.46029 15.64 6.16766 15.2799C5.89755 14.9422 5.67246 14.6046 5.44736 14.2444C5.19975 13.8392 4.97465 13.4341 4.79457 13.0514ZM23.2751 48.1441C23.0275 48.5268 21.7894 50.2825 19.0658 51.3855C18.5705 51.0479 18.0753 50.5301 17.6251 49.8323C17.5801 49.7873 17.5351 49.7423 17.4676 49.7423C17.4 49.7423 17.3325 49.7648 17.31 49.8323C16.8373 50.5301 16.3646 51.0479 15.8694 51.3855C13.1007 50.26 11.8626 48.4818 11.6375 48.1441C12.0427 46.5459 11.9077 44.8577 11.2549 43.3495C12.0652 42.0665 12.1553 40.5808 12.1553 39.883C13.5734 40.9635 15.3066 41.9089 17.4225 42.4266C17.445 42.4266 17.445 42.4266 17.4676 42.4266C17.4901 42.4266 17.4901 42.4266 17.5126 42.4266C19.6285 41.8864 21.3618 40.9635 22.7799 39.883C22.7799 40.5808 22.8474 42.0665 23.6803 43.327C22.9825 44.8577 22.8474 46.5459 23.2751 48.1441ZM11.7276 39.5454C11.7276 39.6579 11.8626 41.4362 11.0523 42.8993C10.8047 42.4266 10.512 41.9539 10.1519 41.5487C7.67582 38.5549 7.38319 34.0755 7.38319 34.0305V33.9179C7.58578 34.3231 7.81087 34.7508 8.08099 35.201C8.86883 36.5741 10.0619 38.1723 11.7276 39.5454ZM23.8378 42.9218C23.0275 41.4812 23.14 39.748 23.14 39.5679C24.8057 38.1948 25.9988 36.5966 26.8316 35.201C27.0792 34.7733 27.3043 34.3681 27.5069 33.963V34.0305C27.5069 34.0755 27.2143 38.5549 24.7382 41.5487C24.4006 41.9764 24.0854 42.4266 23.8378 42.9218ZM27.6645 32.7249C27.6194 32.7474 27.5969 32.815 27.5969 32.86V32.905C27.3043 33.5578 26.9667 34.2556 26.539 34.9759C25.0308 37.5195 22.2621 40.7834 17.4901 41.9989C12.718 40.7834 9.9268 37.5195 8.44115 34.9759C8.01347 34.2331 7.65332 33.5128 7.36069 32.86C7.36069 32.815 7.33817 32.77 7.29315 32.7249C6.55033 30.9917 6.30273 29.7086 6.30273 29.6861C6.30273 29.6636 6.28021 29.6411 6.28021 29.6186V28.358C6.28021 26.5122 6.73042 24.7115 7.58579 23.1133C8.44116 22.9557 10.4895 22.7081 12.8756 23.1808C15.6668 23.7435 17.5351 26.3997 17.1074 29.2134L16.4546 33.4903C16.4321 33.5803 16.4996 33.6703 16.5672 33.6928C16.5897 33.6928 16.9949 33.8504 17.5126 33.8504C17.7827 33.8504 18.0753 33.8054 18.3679 33.6703C18.458 33.6253 18.503 33.5128 18.458 33.4227C18.413 33.3327 18.3004 33.2877 18.2104 33.3327C17.6927 33.5578 17.1074 33.4452 16.8598 33.3777L17.4901 29.2584C17.9403 26.2421 15.9594 23.3834 12.9431 22.7756C10.7597 22.3254 8.84633 22.5055 7.83339 22.6406C8.62123 21.29 9.67919 20.097 10.9848 19.1515C12.3578 19.6693 13.776 19.9394 15.1941 19.9394C17.355 19.9394 19.4934 19.3316 21.4068 18.1386C21.5418 18.0486 21.6769 17.9585 21.8119 17.8685C25.9537 19.6243 28.7449 23.8111 28.7449 28.313V29.5961C28.7449 29.6186 28.7224 29.6411 28.7224 29.6411C28.6549 29.7311 28.3848 30.9917 27.6645 32.7249ZM6.97802 16.7205C7.22563 16.9681 7.51825 17.1932 7.78837 17.4183C4.70453 20.187 2.92627 24.1037 2.92627 28.268V49.2471C2.92627 49.2696 2.92627 49.3146 2.92627 49.3371C2.92627 49.3596 2.92627 49.4046 2.92627 49.4272C2.97129 50.4851 3.84916 51.318 4.90712 51.318C4.90712 51.318 4.90712 51.318 4.92963 51.318C5.1097 51.2955 5.28979 51.273 5.46987 51.2505C5.98759 51.1379 6.4828 50.9578 6.9555 50.7102C7.72083 50.2825 8.35111 49.6748 8.8013 48.9319C9.9493 47.0862 9.76923 44.7001 8.37363 43.0119C7.51826 41.9764 6.79795 40.7159 6.2352 39.2528V36.6191C6.64038 38.3524 7.42821 40.6709 8.95888 42.5392C10.5571 44.475 10.7597 47.1987 9.45409 49.3371C8.39614 51.0479 6.4828 52.1283 4.47943 52.1283C3.78163 52.1283 3.12886 51.8582 2.63364 51.363C2.13843 50.8678 1.86831 50.215 1.86831 49.5172V28.268C1.86831 24.1037 3.48901 20.187 6.43778 17.2382C6.59535 17.0581 6.79794 16.9006 6.97802 16.7205ZM9.07143 18.3187C6.10014 20.8623 4.3894 24.5089 4.3894 28.4031V49.3371C4.3894 49.5847 4.50195 49.8098 4.68202 49.9674C4.81708 50.0799 4.99716 50.1475 5.17724 50.1475C5.24477 50.1475 5.28979 50.1475 5.35732 50.125C6.37026 49.8774 7.27065 49.2471 7.81088 48.3692C8.68876 46.9286 8.55371 45.1053 7.47324 43.7997C7.02304 43.2595 6.59535 42.6517 6.21268 41.9989V40.2882C6.73041 41.4137 7.33817 42.4266 8.05849 43.282C9.34154 44.8352 9.49911 47.0186 8.46366 48.7519C8.03597 49.4272 7.45073 49.9899 6.75292 50.3951C6.32524 50.6427 5.85253 50.8003 5.37982 50.9128C5.22225 50.9353 5.06469 50.9578 4.90712 50.9803C4.05175 50.9803 3.37646 50.305 3.33144 49.4722V28.313C3.33144 24.2613 5.06469 20.3896 8.12601 17.7109C8.41864 17.891 8.73378 18.1161 9.07143 18.3187ZM7.22562 22.8431C7.22562 22.8657 7.20312 22.8657 7.20312 22.8882C6.30273 24.5539 5.83002 26.4447 5.83002 28.3805V34.0755C5.83002 34.0755 5.83002 34.098 5.83002 34.1205C5.83002 34.1205 5.83002 34.143 5.83002 34.1881V42.044V49.5622C5.64994 49.6297 5.46986 49.6973 5.26727 49.7423C5.15472 49.7648 5.01967 49.7423 4.92963 49.6748C4.83959 49.6072 4.77207 49.4722 4.77207 49.3596V28.4256C4.77207 24.5989 6.46029 21.0199 9.43158 18.5663C9.76922 18.7464 10.1294 18.9264 10.4895 19.084C9.11644 20.0744 8.01346 21.3575 7.22562 22.8431ZM6.21268 42.6967C6.50531 43.1694 6.82045 43.5971 7.1581 44.0023C8.12602 45.1728 8.26107 46.816 7.45072 48.1216C7.13558 48.6168 6.7079 49.0445 6.19018 49.3371V42.6967H6.21268ZM24.1079 15.7976C28.7224 18.2737 31.5812 23.0232 31.5812 28.268V49.4272C31.5362 50.26 30.8384 50.9353 30.0055 50.9353C29.8479 50.9128 29.6904 50.8903 29.5328 50.8678C29.0601 50.7777 28.5874 50.5977 28.1597 50.3501C27.4619 49.9674 26.8766 49.4047 26.449 48.7069C25.391 46.9961 25.5486 44.7901 26.8541 43.237C27.5744 42.3816 28.1822 41.3687 28.6999 40.2432V41.9314C28.3173 42.5842 27.8896 43.192 27.4394 43.7322C26.3589 45.0378 26.2238 46.861 27.1017 48.3017C27.642 49.1795 28.5424 49.8323 29.5553 50.0574C29.6228 50.0799 29.6903 50.0799 29.7354 50.0799C29.9154 50.0799 30.0955 50.0124 30.2306 49.8999C30.4332 49.7423 30.5232 49.5172 30.5232 49.2696V28.3355C30.5232 23.4284 27.7095 18.8364 23.3426 16.5854C23.5902 16.3603 23.8603 16.0902 24.1079 15.7976ZM27.4169 48.1216C26.629 46.8385 26.7416 45.1728 27.7095 44.0023C28.0471 43.5971 28.3623 43.1469 28.6549 42.6967V49.3371C28.1597 49.0445 27.732 48.6393 27.4169 48.1216ZM23.0275 16.9231C27.3493 19.084 30.118 23.586 30.118 28.3805V49.3146C30.118 49.4497 30.0505 49.5622 29.9605 49.6297C29.8704 49.6973 29.7354 49.7423 29.6228 49.6973C29.4202 49.6523 29.2402 49.5847 29.0601 49.5172V41.9989V39.2978V34.143C29.0601 34.1205 29.0601 34.098 29.0601 34.0755C29.0601 34.053 29.0601 34.053 29.0601 34.0305V28.3355C29.0601 23.7661 26.2914 19.5117 22.1271 17.6209C22.4422 17.4183 22.7348 17.1707 23.0275 16.9231ZM28.6774 39.2753C28.1147 40.7384 27.3944 41.9989 26.539 43.0344C25.1434 44.7226 24.9633 47.0861 26.1113 48.9545C26.5615 49.6973 27.2143 50.305 27.9571 50.7327C28.4298 51.0028 28.925 51.1829 29.4427 51.273C29.6228 51.318 29.8029 51.3405 29.983 51.3405H30.0055C31.0634 51.3405 31.9413 50.5076 31.9863 49.4497C31.9863 49.4047 31.9863 49.3821 31.9863 49.3371C31.9863 49.3146 31.9863 49.2696 31.9863 49.2471V28.268C31.9863 22.9107 29.0826 18.0261 24.3781 15.4825C24.6031 15.1898 24.8057 14.8972 25.0083 14.6046C26.2689 15.3024 27.4619 16.1803 28.4973 17.2382C31.4461 20.187 33.0668 24.1037 33.0668 28.268V49.5172C33.0668 50.215 32.7967 50.8678 32.3015 51.363C31.8063 51.8582 31.1535 52.1283 30.4557 52.1283C28.4298 52.1283 26.539 51.0704 25.481 49.3371C24.1755 47.1987 24.3555 44.475 25.9762 42.5392C27.5294 40.6709 28.3173 38.3524 28.6999 36.6191V39.2753H28.6774ZM4.45693 53.2763C3.37646 53.2763 2.34101 52.8486 1.57568 52.0833C0.810351 51.318 0.382662 50.305 0.382662 49.2021V28.2455C0.382662 23.6985 2.16093 19.3992 5.37982 16.1803C5.5599 16.0002 5.7625 15.7976 5.96508 15.6175C6.19018 15.8876 6.43779 16.1578 6.6854 16.4054C6.50532 16.5629 6.32524 16.743 6.14516 16.9231C3.12885 19.9394 1.46313 23.9461 1.46313 28.223V49.5172C1.46313 50.3275 1.77826 51.0704 2.34101 51.6331C2.90375 52.1959 3.66909 52.511 4.45693 52.511C6.61786 52.511 8.64373 51.363 9.76922 49.5397C11.1648 47.2662 10.9622 44.34 9.2515 42.2916C6.64037 39.1402 6.2577 34.6833 6.21268 34.143V31.0817C6.37025 31.5994 6.61787 32.2522 6.91049 32.9725L6.9555 34.053C6.9555 34.098 7.22562 38.69 9.81424 41.7964C11.7276 44.1149 11.9752 47.3788 10.3995 49.9449C9.16147 52.0158 6.88798 53.2763 4.45693 53.2763ZM14.3612 51.8807C14.3387 51.8807 14.3387 51.8807 14.3162 51.8807C12.6505 51.8582 11.3449 50.0349 11.0748 49.6297C11.2324 49.2921 11.3899 48.977 11.5025 48.6168C11.9752 49.2696 13.1682 50.6427 15.4417 51.6331C15.059 51.7907 14.7214 51.8807 14.3612 51.8807ZM17.4451 55.3022L16.6347 53.3889L17.4451 52.421L18.2554 53.3889L17.4451 55.3022ZM17.4451 51.9032C17.0174 51.7907 16.6347 51.6781 16.2745 51.5431C16.6797 51.2279 17.0624 50.8003 17.4451 50.26C17.8277 50.8003 18.2104 51.2054 18.6156 51.5431C18.2554 51.6781 17.8727 51.7907 17.4451 51.9032ZM20.5964 51.8807C20.2138 51.8807 19.8536 51.7907 19.4934 51.6331C21.7444 50.6652 22.9599 49.2921 23.4326 48.6393C23.5452 48.977 23.6803 49.3146 23.8603 49.6522C23.5452 50.0574 22.2396 51.8582 20.5964 51.8807ZM34.4849 49.2246C34.4849 50.305 34.0572 51.3405 33.2919 52.1058C32.5266 52.8711 31.5136 53.2988 30.4107 53.2988C28.0021 53.2988 25.7061 52.0158 24.4456 49.9674C24.1079 49.4046 23.8378 48.8194 23.6803 48.1891C23.6803 48.1441 23.6802 48.0991 23.6577 48.0766C23.095 45.9381 23.5677 43.5971 25.0533 41.8189C27.642 38.7125 27.9121 34.1205 27.9121 34.0755L27.9571 33.0401C28.2722 32.3197 28.4973 31.667 28.6549 31.1492V34.1655C28.6099 34.7058 28.2272 39.1852 25.6161 42.3141C23.9053 44.385 23.7028 47.2887 25.0984 49.5622C26.2239 51.3855 28.2497 52.5335 30.4107 52.5335C31.221 52.5335 31.9638 52.2184 32.5266 51.6556C33.0893 51.0929 33.4045 50.3275 33.4045 49.5397V28.2905C33.4045 24.0137 31.7387 20.0069 28.7224 16.9906C27.6645 15.9327 26.4715 15.0323 25.1659 14.3119C25.346 14.0193 25.526 13.7042 25.6836 13.3665C27.0567 14.1319 28.3398 15.0998 29.4878 16.2253C32.7067 19.4442 34.4849 23.721 34.4849 28.2905V49.2246Z" fill="#FDF2DB"/>
</svg>
